{
    "asset" : {
        "generator" : "Khronos glTF Blender I/O v1.7.33",
        "version" : "2.0"
    },
    "scene" : 0,
    "scenes" : [
        {
            "name" : "Scene",
            "nodes" : [
                0
            ]
        }
    ],
    "nodes" : [
        {
            "mesh" : 0,
            "name" : "Cube.006",
            "scale" : [
                0.6580223441123962,
                0.6580223441123962,
                0.6580223441123962
            ]
        }
    ],
    "materials" : [
        {
            "doubleSided" : true,
            "name" : "Material.002",
            "pbrMetallicRoughness" : {
                "baseColorTexture" : {
                    "index" : 0
                },
                "metallicRoughnessTexture" : {
                    "index" : 1
                }
            }
        }
    ],
    "meshes" : [
        {
            "name" : "Cube.006",
            "primitives" : [
                {
                    "attributes" : {
                        "POSITION" : 0,
                        "NORMAL" : 1,
                        "TEXCOORD_0" : 2
                    },
                    "indices" : 3,
                    "material" : 0
                }
            ]
        }
    ],
    "textures" : [
        {
            "sampler" : 0,
            "source" : 0
        },
        {
            "sampler" : 0,
            "source" : 1
        }
    ],
    "images" : [
        {
            "bufferView" : 4,
            "mimeType" : "image/png",
            "name" : "diffuse"
        },
        {
            "bufferView" : 5,
            "mimeType" : "image/png",
            "name" : "roughness"
        }
    ],
    "accessors" : [
        {
            "bufferView" : 0,
            "componentType" : 5126,
            "count" : 3321,
            "max" : [
                2.413862466812134,
                1.7040619850158691,
                1.5578211545944214
            ],
            "min" : [
                -2.331359624862671,
                -1.9185287952423096,
                -1.7610576152801514
            ],
            "type" : "VEC3"
        },
        {
            "bufferView" : 1,
            "componentType" : 5126,
            "count" : 3321,
            "type" : "VEC3"
        },
        {
            "bufferView" : 2,
            "componentType" : 5126,
            "count" : 3321,
            "type" : "VEC2"
        },
        {
            "bufferView" : 3,
            "componentType" : 5123,
            "count" : 14634,
            "type" : "SCALAR"
        }
    ],
    "bufferViews" : [
        {
            "buffer" : 0,
            "byteLength" : 39852,
            "byteOffset" : 0
        },
        {
            "buffer" : 0,
            "byteLength" : 39852,
            "byteOffset" : 39852
        },
        {
            "buffer" : 0,
            "byteLength" : 26568,
            "byteOffset" : 79704
        },
        {
            "buffer" : 0,
            "byteLength" : 29268,
            "byteOffset" : 106272
        },
        {
            "buffer" : 0,
            "byteLength" : 1243040,
            "byteOffset" : 135540
        },
        {
            "buffer" : 0,
            "byteLength" : 707750,
            "byteOffset" : 1378580
        }
    ],
    "samplers" : [
        {
            "magFilter" : 9729,
            "minFilter" : 9987
        }
    ],
    "buffers" : [
        {
            "byteLength" : 2086332,
            "uri" : "data:application/octet-stream;base64,"
        }
    ]
}
